HIERARCHY
ROOT Hips
{
  OFFSET -125.086 92.215 135.881
  CHANNELS 6 Xposition Yposition Zposition Zrotation Xrotation Yrotation
  JOINT LeftUpLeg
  {
    OFFSET 8.64259 1.95398 -2.38835
    CHANNELS 3 Zrotation Xrotation Yrotation
    JOINT LeftLeg
    {
      OFFSET 43.7702 0 0
      CHANNELS 3 Zrotation Xrotation Yrotation
      JOINT LeftFoot
      {
        OFFSET 40.6238 0 0
        CHANNELS 3 Zrotation Xrotation Yrotation
        JOINT LeftToeBase
        {
          OFFSET 12.7242 0 0
          CHANNELS 3 Zrotation Xrotation Yrotation
          End Site
          {
            OFFSET 0 0 0
          }
        }
      }
    }
  }
  JOINT RightUpLeg
  {
    OFFSET -8.2249 1.95398 -2.59336
    CHANNELS 3 Zrotation Xrotation Yrotation
    JOINT RightLeg
    {
      OFFSET 43.5653 0 0
      CHANNELS 3 Zrotation Xrotation Yrotation
      JOINT RightFoot
      {
        OFFSET 40.6238 0 0
        CHANNELS 3 Zrotation Xrotation Yrotation
        JOINT RightToeBase
        {
          OFFSET 12.7242 0 0
          CHANNELS 3 Zrotation Xrotation Yrotation
          End Site
          {
            OFFSET 0 0 0
          }
        }
      }
    }
  }
  JOINT Spine
  {
    OFFSET 0.165834 0.87714 6.61349
    CHANNELS 3 Zrotation Xrotation Yrotation
    JOINT Spine1
    {
      OFFSET 7.38963 1.71661e-005 0
      CHANNELS 3 Zrotation Xrotation Yrotation
      JOINT Spine2
      {
        OFFSET 11.9445 1.14441e-005 0
        CHANNELS 3 Zrotation Xrotation Yrotation
        JOINT Spine3
        {
          OFFSET 14.7254 4.19617e-005 0
          CHANNELS 3 Zrotation Xrotation Yrotation
          JOINT Spine4
          {
            OFFSET 10.9679 0 0
            CHANNELS 3 Zrotation Xrotation Yrotation
            JOINT RightShoulder
            {
              OFFSET 2.46616 -1.6653 3.69651
              CHANNELS 3 Zrotation Xrotation Yrotation
              JOINT RightArm
              {
                OFFSET 13.0012 0 0
                CHANNELS 3 Zrotation Xrotation Yrotation
                JOINT RightForeArm
                {
                  OFFSET 28.7848 1.52588e-005 0
                  CHANNELS 3 Zrotation Xrotation Yrotation
                  JOINT RightHand
                  {
                    OFFSET 26.5688 1.52588e-005 0
                    CHANNELS 3 Zrotation Xrotation Yrotation
                    End Site
                    {
                      OFFSET 0 0 0
                    }
                  }
                }
              }
            }
            JOINT LeftShoulder
            {
              OFFSET 2.38034 -1.29275 -3.7523
              CHANNELS 3 Zrotation Xrotation Yrotation
              JOINT LeftArm
              {
                OFFSET 16.3182 6.10352e-005 0
                CHANNELS 3 Zrotation Xrotation Yrotation
                JOINT LeftForeArm
                {
                  OFFSET 27.0901 0 0
                  CHANNELS 3 Zrotation Xrotation Yrotation
                  JOINT LeftHand
                  {
                    OFFSET 24.5451 1.52588e-005 0
                    CHANNELS 3 Zrotation Xrotation Yrotation
                    End Site
                    {
                      OFFSET 0 0 0
                    }
                  }
                }
              }
            }
            JOINT Neck
            {
              OFFSET 5.0226 -0.0266342 0
              CHANNELS 3 Zrotation Xrotation Yrotation
              JOINT Head
              {
                OFFSET 6.69363 2.86102e-005 0
                CHANNELS 3 Zrotation Xrotation Yrotation
                End Site
                {
                  OFFSET 0 0 0
                }
              }
            }
          }
        }
      }
    }
  }
}
MOTION
Frames:	7
Frame Time:	0.0416667
-90.9755 91.6276 -159.418 76.9936 -44.6959 84.8998 179.169 9.48386 89.3659 -34.9201 21.7196 7.92512 66.2822 14.5546 26.4814 63.1057 -0.600259 12.5033 172.509 47.8733 91.9796 -52.3187 -9.86611 2.49424 63.7063 -0.916583 17.0647 67.6982 -7.11894 -3.90635 -0.561393 10.0613 -90.3004 6.74797 -1.2495 -0.542186 -4.92247 -1.27216 -0.486665 -27.4602 -1.0288 -0.892655 -7.44759 -1.02881 -0.892683 107.645 -51.226 -73.7533 24.0415 -0.0596173 -16.7475 -2.57547 -33.2304 -16.4221 -6.15001 -0.147262 -2.61137 -79.4727 -45.0624 94.2334 -20.5929 1.62253 -38.913 21.7202 23.5576 -54.2262 -0.318047 -0.228253 -12.04 10.5801 0.465236 -10.4576 -2.29898 3.00715 11.0496 
-101.352 91.3733 -171.902 77.3297 -44.1437 79.2079 178.782 24.565 84.0798 -42.0121 19.5707 4.21954 66.9516 12.5957 22.4628 58.9786 -1.48352 7.33878 171.815 41.589 87.038 -75.7105 -16.3517 -0.750729 60.3083 -0.0224487 16.8813 72.7788 -6.64922 1.04187 -0.0560724 9.86974 -89.8309 7.13182 -0.0392174 0.337445 -4.53911 -0.0243032 0.33884 -27.0741 -0.138816 0.310055 -7.06147 -0.138817 0.310066 106.47 -48.7757 -75.3483 24.5419 5.30412 -22.7462 0.340384 -35.6766 -6.84024 -4.32605 -0.231676 1.11216 -80.382 -44.1947 92.7217 -17.7354 0.212935 -42.1038 22.5947 24.8187 -54.4296 -2.52706 -0.0466069 -10.7898 3.88314 -1.87044 -4.61781 1.05244 -0.836758 4.76128 
-109.301 91.5618 -181.778 80.8097 -45.6708 78.6615 179.277 29.7814 82.1725 -39.9396 18.0483 2.09801 65.3946 9.28972 16.3005 61.7095 -1.05267 10.1869 172.054 14.0212 82.3829 -64.8535 -7.92319 -2.08448 58.7295 1.22211 24.8764 57.8372 -3.78313 5.78565 0.645101 9.59427 -89.7397 7.68425 1.40123 0.430833 -3.98627 1.41883 0.368724 -26.5237 1.20701 0.83205 -6.51108 1.207 0.832034 105.897 -46.5822 -76.0846 19.6038 3.79707 -23.4086 -1.85082 -33.4339 -12.5867 -5.41808 -0.169197 -1.80016 -79.2341 -43.7788 94.5808 -12.4549 -4.42441 -34.2257 22.6086 23.604 -54.5064 -4.67357 0.0866892 -12.9536 -1.65505 -3.59332 -2.38919 1.32382 -3.24986 0.27398 
-117.959 90.7612 -192.38 71.6287 -47.6054 72.3853 -179.905 43.7763 83.8737 -41.8265 19.0585 0.595491 63.7745 7.8037 12.0098 65.3455 -0.121712 14.4283 176.08 6.11404 86.9724 -39.0778 -2.68223 -2.81046 62.3476 1.27167 28.3888 57.2548 -3.1259 8.43357 1.09308 8.9201 -89.9587 9.03696 2.19883 -0.0604992 -2.63206 2.19405 -0.157267 -25.182 2.11529 0.603451 -5.16933 2.11531 0.603452 106.584 -46.0581 -74.9199 14.5996 -0.243333 -25.2167 -3.82252 -16.9276 -30.2807 -10.8311 -0.14309 -3.68968 -78.4237 -43.8662 95.9103 -10.5515 -16.3653 -23.3087 21.3222 15.8684 -54.6684 2.40716 -0.378566 -11.2763 5.44421 -3.37378 -2.62983 -2.57326 -2.8548 2.76419 
-126.383 89.2879 -202.567 74.3417 -50.1427 75.6272 -175.325 45.7202 84.0623 -65.5366 16.7056 0.974266 63.7622 9.06394 10.9534 64.5993 -0.0806307 14.9061 175.176 12.5029 88.524 -46.0863 -9.18192 -1.3681 76.8703 -5.92285 13.4073 59.7467 -4.85693 -0.107783 0.606362 9.62402 -90.2411 7.62827 1.106 -0.532373 -4.04231 1.08148 -0.580548 -26.5811 1.21482 -0.175341 -6.56845 1.21484 -0.175338 107.408 -48.8595 -73.8741 17.9062 0.0297886 -30.4089 -8.49597 -13.0894 -44.3697 -8.1556 -0.101578 -3.96546 -77.6756 -44.747 97.1343 -17.3985 -22.85 -20.4025 20.6317 12.2208 -51.5396 7.80557 -0.662551 -10.7866 11.4122 -1.42402 -10.6072 -1.3641 1.40914 13.011 
-132.265 89.3006 -208.716 74.7521 -46.0806 76.3625 -178.585 35.4414 85.2088 -72.3114 11.3737 3.04644 65.6759 11.2673 10.9136 64.9128 -0.560702 12.4501 175.882 18.2998 91.7314 -47.959 -1.99386 -0.78888 82.043 -9.75725 8.0031 53.5067 -4.0141 -1.30658 -0.245796 9.55144 -90.3545 7.7683 -0.645128 -0.665832 -3.90258 -0.673827 -0.636809 -26.4374 -0.415212 -0.828942 -6.42477 -0.415202 -0.828928 110.861 -53.2599 -69.1594 23.2602 -2.32138 -26.7115 -11.2732 -18.5531 -42.6145 -12.4956 -0.310087 -2.41874 -79.2177 -44.5164 94.6304 -23.008 -12.8732 -28.6974 17.4079 23.196 -34.3131 3.70953 -0.411122 -10.4073 9.6722 -0.471815 -12.095 -2.69105 2.38288 15.3559 
-135.6 91.8462 -213.282 74.5441 -45.1164 76.3419 -179.48 14.8718 84.835 -44.7939 11.577 3.64844 66.3928 11.3112 8.96398 64.9087 -0.147268 14.7864 176.409 22.2836 90.9664 -45.7842 -2.58832 -0.777211 74.4867 -5.69154 10.1098 52.4456 -3.74408 -0.376158 -0.648025 9.3314 -90.3133 8.20734 -1.43093 -0.536081 -3.46292 -1.45313 -0.472587 -26.0019 -1.20366 -0.941393 -5.98921 -1.20365 -0.94139 112.891 -56.1567 -66.6883 26.1482 -1.39373 -19.9159 -8.23797 -27.439 -29.2767 -12.7172 -0.490338 -0.502826 -80.0082 -45.9707 93.41 -30.5161 -4.66069 -34.0384 25.226 47.6895 -34.4886 1.82894 -0.332931 -11.0791 9.91828 -0.000128566 -14.1404 -4.17538 3.13454 18.029 
